<svg width="30" height="31" viewBox="0 0 30 31" fill="none" xmlns="http://www.w3.org/2000/svg">
<g clip-path="url(#clip0_12_97)">
<path d="M15 14.1487C14.2437 14.1487 13.625 14.777 13.625 15.5449C13.625 16.3129 14.2437 16.9412 15 16.9412C15.3647 16.9412 15.7144 16.7941 15.9723 16.5322C16.2301 16.2704 16.375 15.9152 16.375 15.5449C16.375 15.1746 16.2301 14.8195 15.9723 14.5576C15.7144 14.2958 15.3647 14.1487 15 14.1487ZM15 2.85182C8.09375 2.85182 2.5 8.53199 2.5 15.5449C2.5 22.5515 8.09375 28.2381 15 28.2381C21.9062 28.2381 27.5 22.5515 27.5 15.5449C27.5 8.53199 21.9062 2.85182 15 2.85182ZM17.7375 18.3247L7.5 23.1608L12.2625 12.7651L22.5 7.92907L17.7375 18.3247Z" fill="white"/>
</g>
<defs>
<clipPath id="clip0_12_97">
<rect width="30" height="30.4635" fill="white" transform="translate(0 0.313202)"/>
</clipPath>
</defs>
</svg>
