<svg width="30" height="31" viewBox="0 0 30 31" fill="none" xmlns="http://www.w3.org/2000/svg">
<g clip-path="url(#clip0_12_94)">
<path d="M11.4297 26.7652V22.8724C11.4296 21.886 12.2196 21.0845 13.198 21.0783H16.7908C17.7736 21.0783 18.5703 21.8816 18.5703 22.8724V26.7539C18.5703 27.6095 19.255 28.3049 20.1037 28.3111H22.5548C23.6995 28.3141 24.7984 27.8577 25.609 27.0427C26.4195 26.2277 26.875 25.121 26.875 23.9669V12.9091C26.875 11.9768 26.4651 11.0925 25.7558 10.4944L17.4287 3.78072C15.9731 2.60642 13.8942 2.64436 12.4817 3.87099L4.33377 10.4944C3.59093 11.0749 3.14694 11.9618 3.125 12.9091V23.9556C3.125 26.3611 5.05923 28.3111 7.44522 28.3111H9.84036C10.249 28.3141 10.6419 28.1525 10.9318 27.8623C11.2218 27.5721 11.3849 27.1772 11.3849 26.7652H11.4297Z" fill="white"/>
</g>
<defs>
<clipPath id="clip0_12_94">
<rect width="30" height="30.4635" fill="white" transform="translate(0 0.38623)"/>
</clipPath>
</defs>
</svg>
