<svg width="30" height="31" viewBox="0 0 30 31" fill="none" xmlns="http://www.w3.org/2000/svg">
<g clip-path="url(#clip0_15_144)">
<path fill-rule="evenodd" clip-rule="evenodd" d="M1.25 11.664C1.25 10.2619 2.36929 9.12535 3.75 9.12535H26.25C27.6308 9.12535 28.75 10.2619 28.75 11.664V25.6264C28.75 27.0285 27.6308 28.165 26.25 28.165H3.75C2.36929 28.165 1.25 27.0285 1.25 25.6264V11.664ZM11.9227 13.0767C12.3362 12.8582 12.835 12.8913 13.2169 13.1628L19.4669 17.6054C19.801 17.8429 20 18.231 20 18.6452C20 19.0594 19.801 19.4475 19.4669 19.685L13.2169 24.1276C12.835 24.3991 12.3362 24.4322 11.9227 24.2137C11.5093 23.9951 11.25 23.5611 11.25 23.0878V14.2026C11.25 13.7293 11.5093 13.2953 11.9227 13.0767ZM25 8.4907H5V5.95207H25V8.4907ZM22.5 5.31742H7.5V2.77879H22.5V5.31742Z" fill="white"/>
</g>
<defs>
<clipPath id="clip0_15_144">
<rect width="30" height="30.4635" fill="white" transform="translate(0 0.240173)"/>
</clipPath>
</defs>
</svg>
