<svg width="20" height="20" viewBox="0 0 20 20" fill="none" xmlns="http://www.w3.org/2000/svg">
<g clip-path="url(#clip0_48_25)">
<g clip-path="url(#clip1_48_25)">
<g clip-path="url(#clip2_48_25)">
<path d="M17.4801 10.1257C17.2907 10.1257 17.109 10.0505 16.9751 9.9165C16.8411 9.78254 16.7658 9.60086 16.7658 9.41142V7.35428C16.7927 6.94951 16.659 6.55046 16.3938 6.24352C16.1285 5.93658 15.7531 5.74644 15.3487 5.71428H2.9887C2.79926 5.71428 2.61758 5.63902 2.48362 5.50507C2.34967 5.37111 2.27441 5.18943 2.27441 4.99999C2.27441 4.81055 2.34967 4.62887 2.48362 4.49492C2.61758 4.36096 2.79926 4.28571 2.9887 4.28571H15.3487C16.1334 4.31401 16.8748 4.65234 17.4104 5.22651C17.946 5.80067 18.2321 6.5638 18.2058 7.34856V9.40571C18.2066 9.50096 18.1883 9.5954 18.1521 9.68348C18.1158 9.77156 18.0623 9.85149 17.9947 9.91858C17.927 9.98567 17.8467 10.0386 17.7583 10.0741C17.67 10.1097 17.5754 10.1272 17.4801 10.1257Z" fill="white"/>
<path d="M15.3487 19.2457H2.98868C2.204 19.2174 1.46256 18.8791 0.92696 18.3049C0.391359 17.7308 0.10531 16.9676 0.13154 16.1829V3.29143C0.13154 3.10199 0.206795 2.92031 0.340749 2.78636C0.474704 2.6524 0.656385 2.57715 0.845826 2.57715C1.03527 2.57715 1.21695 2.6524 1.3509 2.78636C1.48486 2.92031 1.56011 3.10199 1.56011 3.29143V16.1829C1.53335 16.587 1.66719 16.9854 1.93256 17.2915C2.19793 17.5975 2.57336 17.7864 2.97725 17.8171H15.3487C15.7526 17.7864 16.128 17.5975 16.3934 17.2915C16.6587 16.9854 16.7926 16.587 16.7658 16.1829V14.7314C16.7658 14.542 16.8411 14.3603 16.975 14.2264C17.109 14.0924 17.2907 14.0171 17.4801 14.0171C17.6696 14.0171 17.8512 14.0924 17.9852 14.2264C18.1191 14.3603 18.1944 14.542 18.1944 14.7314V16.1829C18.2207 16.9657 17.9362 17.7272 17.403 18.301C16.8699 18.8749 16.1314 19.2145 15.3487 19.2457Z" fill="white"/>
<path d="M15.0574 5.7143C14.8699 5.71432 14.6899 5.64064 14.5563 5.50915C14.4226 5.37766 14.3461 5.1989 14.3431 5.01144V3.42859C14.3297 3.08955 14.1828 2.76956 13.9345 2.53835C13.6861 2.30715 13.3565 2.18348 13.0174 2.1943H2.73164C2.44004 2.18347 2.15604 2.28865 1.94183 2.48679C1.72763 2.68493 1.60067 2.95989 1.58878 3.25144C1.60067 3.543 1.72763 3.81795 1.94183 4.01609C2.15604 4.21424 2.44004 4.31941 2.73164 4.30859H9.01735C9.20679 4.30859 9.38847 4.38384 9.52243 4.5178C9.65638 4.65175 9.73164 4.83343 9.73164 5.02287C9.73164 5.21231 9.65638 5.39399 9.52243 5.52795C9.38847 5.6619 9.20679 5.73716 9.01735 5.73716H2.7145C2.38158 5.74245 2.05089 5.68201 1.74136 5.55931C1.43184 5.4366 1.14956 5.25404 0.910701 5.02208C0.671838 4.79012 0.481083 4.51331 0.34936 4.20752C0.217637 3.90172 0.147534 3.57294 0.143066 3.24001C0.15509 2.56961 0.432598 1.93136 0.914689 1.46534C1.39678 0.999317 2.04407 0.743597 2.7145 0.7543H13.0002C13.3581 0.746727 13.7139 0.810018 14.0473 0.94053C14.3806 1.07104 14.6848 1.2662 14.9424 1.51476C15.2 1.76333 15.4059 2.06039 15.5482 2.38884C15.6905 2.7173 15.7664 3.07066 15.7716 3.42859V5.01144C15.7686 5.1989 15.6921 5.37766 15.5584 5.50915C15.4248 5.64064 15.2448 5.71432 15.0574 5.7143ZM17.9431 15.4286H13.9831C13.2096 15.4439 12.4616 15.1516 11.9034 14.6159C11.3452 14.0802 11.0224 13.3449 11.0059 12.5714V11.5372C11.0224 10.7637 11.3452 10.0284 11.9034 9.49267C12.4616 8.95698 13.2096 8.6647 13.9831 8.68001H17.9831C18.233 8.68076 18.4802 8.73073 18.7108 8.82705C18.9414 8.92337 19.1508 9.06416 19.3269 9.24139C19.5031 9.41861 19.6426 9.62881 19.7376 9.85996C19.8325 10.0911 19.881 10.3387 19.8802 10.5886V13.5543C19.8712 14.0595 19.6622 14.5405 19.2991 14.8919C18.9359 15.2432 18.4483 15.4362 17.9431 15.4286ZM13.9831 10.1143C13.5893 10.0988 13.2055 10.2397 12.9153 10.5063C12.6252 10.7729 12.4523 11.1435 12.4345 11.5372V12.6C12.4523 12.9936 12.6252 13.3642 12.9153 13.6308C13.2055 13.8974 13.5893 14.0384 13.9831 14.0229H17.9431C18.0679 14.0229 18.1877 13.9737 18.2764 13.886C18.3652 13.7983 18.4158 13.6791 18.4174 13.5543V10.5886C18.4139 10.4745 18.3669 10.3661 18.2859 10.2857C18.2431 10.2409 18.1916 10.2052 18.1347 10.1807C18.0778 10.1561 18.0165 10.1433 17.9545 10.1429L13.9831 10.1143Z" fill="white"/>
<path d="M14.3774 12.7829C14.7719 12.7829 15.0917 12.4631 15.0917 12.0686C15.0917 11.6741 14.7719 11.3543 14.3774 11.3543C13.9829 11.3543 13.6631 11.6741 13.6631 12.0686C13.6631 12.4631 13.9829 12.7829 14.3774 12.7829Z" fill="white"/>
</g>
</g>
</g>
<defs>
<clipPath id="clip0_48_25">
<rect width="20" height="20" fill="white"/>
</clipPath>
<clipPath id="clip1_48_25">
<rect width="20" height="20" fill="white"/>
</clipPath>
<clipPath id="clip2_48_25">
<rect width="20" height="20" fill="white"/>
</clipPath>
</defs>
</svg>
